PathFileType	4	(X/Y/Z)	./resultDataOpenSim/trcMotMarkerGrf/sub09/qtm-01-05.trc
DataRate	CameraRate	NumFrames	NumMarkers	Units	OrigDataRate	OrigDataStartFrame	OrigNumFrames
250.000000	250.000000	8	24	m	250.000000	407	465
Frame#	Time	L.Toe.Tip			R.Toe.Tip			L.Ankle.Lat			R.Ankle.Lat			L.Ankle.Med			R.Ankle.Med			L.Heel			R.Heel			L.Knee.Lat			R.Knee.Lat			L.Knee.Med			R.Knee.Med			L.Thigh.Upper			R.Thigh.Upper			L.ASIS			R.ASIS			V.Sacral			L.Acromium			R.Acromium			C7			L.Elbow			R.Elbow			L.Wrist.Lat			R.Wrist.Lat
		X1	Y1	Z1	X2	Y2	Z2	X3	Y3	Z3	X4	Y4	Z4	X5	Y5	Z5	X6	Y6	Z6	X7	Y7	Z7	X8	Y8	Z8	X9	Y9	Z9	X10	Y10	Z10	X11	Y11	Z11	X12	Y12	Z12	X13	Y13	Z13	X14	Y14	Z14	X15	Y15	Z15	X16	Y16	Z16	X17	Y17	Z17	X18	Y18	Z18	X19	Y19	Z19	X20	Y20	Z20	X21	Y21	Z21	X22	Y22	Z22	X23	Y23	Z23	X24	Y24	Z24

407	1.624	1.7770683	0.12618472	0.043907091	1.0776879	0.040003336	0.14791728	1.6259928	0.091580397	0.021387146	0.93941436	0.090307106	0.18438959	1.6490452	0.12259323	0.11266255	0.96537666	0.12837711	0.09675675	1.583325	0.030072025	0.078700792	0.86973608	0.091646487	0.13179506	1.4897986	0.4875462	-0.019600476	1.1763919	0.48934014	0.25809823	1.497248	0.48603385	0.10633838	1.1674438	0.48283099	0.13255304	1.2981379	0.85784058	-0.062063181	1.2455003	0.8871161	0.30580582	1.3657513	0.9526607	0.0012901386	1.3529837	0.96723172	0.24297565	1.1900482	1.0045872	0.10190697	1.324994	1.4071664	-0.060942266	1.3080718	1.4269601	0.27037837	1.2497892	1.4647218	0.10276244	1.1646517	1.0768195	-0.11363902	1.1783409	1.0772039	0.37075861	1.2583767	0.83714159	-0.16721867	1.4064743	0.91493162	0.38089943
408	1.628	1.7804181	0.12189578	0.045417019	1.0779209	0.040112072	0.14820314	1.6290071	0.089256756	0.022367364	0.94060982	0.092136122	0.18501506	1.6521213	0.12016327	0.11360089	0.96696364	0.12994552	0.097407661	1.5854469	0.028373917	0.079263162	0.87087047	0.094512006	0.1324779	1.4978405	0.48728622	-0.019397167	1.1828031	0.48798821	0.25846922	1.5058137	0.48630003	0.10618506	1.1742519	0.48144266	0.13316919	1.3044959	0.85710801	-0.062635275	1.2517673	0.88584995	0.3055149	1.3725371	0.95184841	0.00083588815	1.3594934	0.96594203	0.24268714	1.1966141	1.0032395	0.10159173	1.3309365	1.4060317	-0.061203714	1.3138094	1.4257125	0.27014577	1.25551	1.4634912	0.10245913	1.1712368	1.0753673	-0.11393577	1.1841007	1.0757791	0.36996202	1.2645644	0.83571339	-0.16777054	1.4121712	0.91352078	0.38068002
409	1.632	1.7834492	0.11755668	0.047132463	1.0781872	0.040254855	0.14848206	1.6317158	0.08687536	0.023422332	0.94187551	0.094083768	0.18563842	1.6548791	0.11764583	0.11461662	0.96871372	0.13160302	0.098066878	1.5872551	0.026665341	0.079865742	0.87214687	0.097540158	0.13310753	1.5056233	0.48692025	-0.019206076	1.1893665	0.48665324	0.25896665	1.5142189	0.48649631	0.105986	1.1811463	0.480047	0.13377748	1.3109991	0.8564011	-0.063161789	1.2580645	0.88455214	0.30522856	1.3794573	0.95111832	0.00041068676	1.3660658	0.964656	0.24239815	1.2032924	1.0019023	0.101289	1.3368762	1.4049509	-0.061483697	1.3195585	1.4244927	0.26988957	1.2612164	1.4622752	0.10216144	1.1778502	1.0739677	-0.11423543	1.1897101	1.0743747	0.3691097	1.270821	0.83434203	-0.16830693	1.4177975	0.91208895	0.38045882
410	1.636	1.7862193	0.11313003	0.048994748	1.0784797	0.040413759	0.14873927	1.6341672	0.084449175	0.024534279	0.94319777	0.096118987	0.1862694	1.6573491	0.11501509	0.11573243	0.97063435	0.13335363	0.098735332	1.5886875	0.025033864	0.080497684	0.8735799	0.10073695	0.13369717	1.5131811	0.48644865	-0.018960789	1.1960907	0.48531618	0.25958089	1.5224591	0.48659599	0.10577346	1.1881089	0.47861957	0.13440092	1.3176938	0.85570477	-0.063647433	1.2644296	0.88320868	0.30494136	1.3865233	0.95043886	1.6209235e-05	1.3727121	0.96338579	0.24212102	1.2100821	1.0005758	0.10099964	1.3428126	1.4039172	-0.061781863	1.3253178	1.4232924	0.26960696	1.2669214	1.4610683	0.10185068	1.1844874	1.0726162	-0.11452547	1.1951461	1.0729939	0.36821231	1.2771462	0.83302832	-0.16881959	1.4233587	0.91063747	0.38024034
411	1.64	1.7888488	0.10848955	0.05095928	1.0787881	0.040582638	0.14897564	1.636449	0.082041467	0.025681673	0.94455488	0.098209385	0.186922	1.6596029	0.11231435	0.11696909	0.97273269	0.13519761	0.099416626	1.589744	0.023622828	0.081142798	0.87518364	0.10410519	0.13424904	1.5205199	0.48585377	-0.0186399	1.2029204	0.48397431	0.26030138	1.5305057	0.48655813	0.10556265	1.19513	0.47712324	0.13506566	1.3246106	0.85501172	-0.064092476	1.2709597	0.88182031	0.30464612	1.393732	0.94977788	-0.00034020973	1.3794344	0.96214374	0.24186628	1.2169636	0.9992732	0.10071214	1.3487439	1.4029263	-0.062099286	1.33108	1.4221117	0.26929345	1.2726226	1.4598659	0.10150854	1.1911386	1.0713124	-0.11480199	1.2005009	1.0716581	0.36731051	1.2835368	0.83177497	-0.16931468	1.4288539	0.90916692	0.38002306
412	1.644	1.7915296	0.10343491	0.053012583	1.0791073	0.040772197	0.14921854	1.6387289	0.079795121	0.026832841	0.94598745	0.10036891	0.1876142	1.6618106	0.10970621	0.11830105	0.97501682	0.13712845	0.10011947	1.5905443	0.022646144	0.081810158	0.87697053	0.10764856	0.13476273	1.5276778	0.48511322	-0.018296038	1.2098218	0.48262857	0.2611134	1.5383369	0.48633879	0.10536185	1.2022177	0.47552571	0.1357836	1.3317611	0.85431931	-0.064490593	1.2777134	0.88040368	0.30432466	1.4010527	0.94911929	-0.00063168828	1.3862257	0.96093682	0.24163824	1.223907	0.99801906	0.10041402	1.3546706	1.4019797	-0.062437734	1.3368351	1.4209576	0.26894889	1.2783087	1.4586759	0.10113356	1.1977937	1.0700602	-0.11507333	1.205977	1.070409	0.36647361	1.2899923	0.83058397	-0.16980601	1.4342817	0.90767736	0.37980085
413	1.648	1.7944809	0.09784044	0.055123555	1.0794427	0.040997759	0.14950567	1.6412113	0.077914934	0.027920452	0.947676	0.10267623	0.18839219	1.6642472	0.10741773	0.11961316	0.97749323	0.1391385	0.10085655	1.5912953	0.022353273	0.082512155	0.87895024	0.11137295	0.13524479	1.5347253	0.48423282	-0.018012635	1.2168073	0.48127282	0.26199131	1.5459604	0.48590772	0.10519107	1.209394	0.47380742	0.1365424	1.3391476	0.85362367	-0.064837164	1.2846231	0.87898167	0.3039458	1.408418	0.94847917	-0.00083042751	1.3930818	0.95976116	0.24143442	1.2308703	0.99684449	0.10009289	1.3605969	1.401083	-0.062799726	1.3425717	1.4198377	0.26857784	1.2839741	1.4575263	0.10073274	1.2044504	1.0688605	-0.11535242	1.2117172	1.0692768	0.36574667	1.2965166	0.829452	-0.17029789	1.439645	0.90616838	0.37956936
414	1.652	1.7978712	0.091800295	0.057202503	1.0798056	0.041255928	0.14984845	1.644032	0.076567315	0.028823279	0.9498654	0.10520982	0.18934739	1.6671612	0.10558149	0.12072426	0.98016438	0.14122254	0.10164176	1.5921948	0.02288271	0.083190224	0.88113334	0.11528255	0.1357134	1.5417149	0.48327621	-0.017830196	1.2239322	0.47990048	0.26290771	1.5533799	0.48526617	0.10508151	1.2166867	0.47196299	0.13730662	1.3467671	0.85291733	-0.06513277	1.2915598	0.87756758	0.30348553	1.41574	0.94789918	-0.0009389288	1.400003	0.95860367	0.24124756	1.237814	0.99578218	0.099746153	1.3665282	1.4002435	-0.063187647	1.3482798	1.4187567	0.26818929	1.2896288	1.4564615	0.10030749	1.2111173	1.0677079	-0.115643	1.2176931	1.0682531	0.36510938	1.3031137	0.82837268	-0.17078225	1.4449472	0.90463756	0.37933065
